# xmcd CD database file
#
# Track frame offsets:
#	150
#	19069
#	47748
#	90511
#	111393
#	137950
#	158229
#	182642
#	211344
#	228097
#	251153
#	274164
#
# Disc length: 3794 seconds
#
# Revision: 0
# Processed by: cddbd v1.5.2PL0 Copyright (c) Steve Scherf et al.
# Submitted via: CDex 1.70beta2
#
DISCID=a50ed00c
DTITLE=Steve Rochinski, Scott Lee, Joe Hunt, Bruce Thomas - A Bird In The Hand
DYEAR=1997
DGENRE=Jazz
TTITLE0=Beautifull love
TTITLE1=Monk's Dream
TTITLE2=House Party Starting
TTITLE3=A Bird In The Hand
TTITLE4='Round Midnight
TTITLE5=Tina
TTITLE6=Go Little Boat
TTITLE7=Get Out Of Town
TTITLE8=They Didn't Believe Me
TTITLE9=Hassan's Drean
TTITLE10=Stardust - Body and Soul
TTITLE11=Powder Your Face With Sunshine
EXTD=YEAR: 1997
EXTT0=
EXTT1=
EXTT2=
EXTT3=
EXTT4=
EXTT5=
EXTT6=
EXTT7=
EXTT8=
EXTT9=
EXTT10=
EXTT11=
PLAYORDER=
